<?xml version="1.0" encoding="UTF-8" standalone="no"?>
<!DOCTYPE svg PUBLIC "-//W3C//DTD SVG 1.1//EN"
 "http://www.w3.org/Graphics/SVG/1.1/DTD/svg11.dtd">
<!-- Generated by graphviz version 2.40.1 (20161225.0304)
 -->
<!-- Title: %0 Pages: 1 -->
<svg width="215pt" height="330pt"
 viewBox="0.00 0.00 215.00 330.00" xmlns="http://www.w3.org/2000/svg" xmlns:xlink="http://www.w3.org/1999/xlink">
<g id="graph0" class="graph" transform="scale(1 1) rotate(0) translate(4 326)">
<title>%0</title>
<g id="a_graph0"><a xlink:title="Data Model">
<polygon fill="#ffffff" stroke="transparent" points="-4,4 -4,-326 211,-326 211,4 -4,4"/>
</a>
</g>
<!-- academy -->
<g id="node1" class="node">
<title>academy</title>
<polygon fill="#ed7d31" stroke="transparent" points="1.5,-301 1.5,-321 100.5,-321 100.5,-301 1.5,-301"/>
<text text-anchor="start" x="26.1255" y="-306.4" font-family="Times,serif" font-size="14.00" fill="#ffffff">academy</text>
<polygon fill="#fbe5d5" stroke="transparent" points="1.5,-281 1.5,-301 100.5,-301 100.5,-281 1.5,-281"/>
<text text-anchor="start" x="3.5" y="-286.4" font-family="Times,serif" font-size="14.00" fill="#444444">film</text>
<polygon fill="#fbe5d5" stroke="transparent" points="1.5,-261 1.5,-281 100.5,-281 100.5,-261 1.5,-261"/>
<text text-anchor="start" x="3.183" y="-267.4" font-family="Times,serif" text-decoration="underline" font-size="14.00" fill="#444444">film, award_type</text>
<polygon fill="none" stroke="#9e5320" stroke-opacity="0.666667" points="0,-260 0,-322 101,-322 101,-260 0,-260"/>
</g>
<!-- pixar_films -->
<g id="node4" class="node">
<title>pixar_films</title>
<polygon fill="#5b9bd5" stroke="transparent" points="138,-161 138,-181 206,-181 206,-161 138,-161"/>
<text text-anchor="start" x="139.7286" y="-166.4" font-family="Times,serif" font-size="14.00" fill="#ffffff">pixar_films</text>
<polygon fill="#deebf6" stroke="transparent" points="138,-141 138,-161 206,-161 206,-141 138,-141"/>
<text text-anchor="start" x="140" y="-147.4" font-family="Times,serif" text-decoration="underline" font-size="14.00" fill="#444444">film</text>
<polygon fill="none" stroke="#3c678e" stroke-opacity="0.666667" points="137,-140 137,-182 207,-182 207,-140 137,-140"/>
</g>
<!-- academy&#45;&gt;pixar_films -->
<g id="edge2" class="edge">
<title>academy:film&#45;&gt;pixar_films:film</title>
<path fill="none" stroke="#555555" d="M100.5,-291C161.0155,-291 84.073,-167.4399 127.9432,-152.4775"/>
<polygon fill="#555555" stroke="#555555" points="128.615,-155.9165 138,-151 127.5974,-148.9909 128.615,-155.9165"/>
</g>
<!-- box_office -->
<g id="node2" class="node">
<title>box_office</title>
<polygon fill="#ed7d31" stroke="transparent" points="18.5,-221 18.5,-241 82.5,-241 82.5,-221 18.5,-221"/>
<text text-anchor="start" x="20.1795" y="-226.4" font-family="Times,serif" font-size="14.00" fill="#ffffff">box_office</text>
<polygon fill="#fbe5d5" stroke="transparent" points="18.5,-201 18.5,-221 82.5,-221 82.5,-201 18.5,-201"/>
<text text-anchor="start" x="20.5" y="-207.4" font-family="Times,serif" text-decoration="underline" font-size="14.00" fill="#444444">film</text>
<polygon fill="none" stroke="#9e5320" stroke-opacity="0.666667" points="17.5,-200 17.5,-242 83.5,-242 83.5,-200 17.5,-200"/>
</g>
<!-- box_office&#45;&gt;pixar_films -->
<g id="edge3" class="edge">
<title>box_office:film&#45;&gt;pixar_films:film</title>
<path fill="none" stroke="#555555" d="M82.5,-211C114.9945,-211 104.6973,-162.9888 128.1654,-152.8615"/>
<polygon fill="#555555" stroke="#555555" points="128.8254,-156.2988 138,-151 127.5235,-149.4209 128.8254,-156.2988"/>
</g>
<!-- genres -->
<g id="node3" class="node">
<title>genres</title>
<polygon fill="#ed7d31" stroke="transparent" points="18.5,-161 18.5,-181 83.5,-181 83.5,-161 18.5,-161"/>
<text text-anchor="start" x="32.7328" y="-166.4" font-family="Times,serif" font-size="14.00" fill="#ffffff">genres</text>
<polygon fill="#fbe5d5" stroke="transparent" points="18.5,-141 18.5,-161 83.5,-161 83.5,-141 18.5,-141"/>
<text text-anchor="start" x="20.5" y="-146.4" font-family="Times,serif" font-size="14.00" fill="#444444">film</text>
<polygon fill="#fbe5d5" stroke="transparent" points="18.5,-121 18.5,-141 83.5,-141 83.5,-121 18.5,-121"/>
<text text-anchor="start" x="20.2889" y="-127.4" font-family="Times,serif" text-decoration="underline" font-size="14.00" fill="#444444">film, genre</text>
<polygon fill="none" stroke="#9e5320" stroke-opacity="0.666667" points="17,-120 17,-182 84,-182 84,-120 17,-120"/>
</g>
<!-- genres&#45;&gt;pixar_films -->
<g id="edge4" class="edge">
<title>genres:film&#45;&gt;pixar_films:film</title>
<path fill="none" stroke="#555555" d="M83.5,-151C103.9375,-151 111.4419,-151 127.8378,-151"/>
<polygon fill="#555555" stroke="#555555" points="128,-154.5001 138,-151 128,-147.5001 128,-154.5001"/>
</g>
<!-- pixar_people -->
<g id="node5" class="node">
<title>pixar_people</title>
<polygon fill="#70ad47" stroke="transparent" points="12.5,-81 12.5,-101 89.5,-101 89.5,-81 12.5,-81"/>
<text text-anchor="start" x="14.4572" y="-86.4" font-family="Times,serif" font-size="14.00" fill="#ffffff">pixar_people</text>
<polygon fill="#e2eeda" stroke="transparent" points="12.5,-61 12.5,-81 89.5,-81 89.5,-61 12.5,-61"/>
<text text-anchor="start" x="14.5" y="-66.4" font-family="Times,serif" font-size="14.00" fill="#444444">film</text>
<polygon fill="none" stroke="#4a732f" stroke-opacity="0.666667" points="11,-60 11,-102 90,-102 90,-60 11,-60"/>
</g>
<!-- pixar_people&#45;&gt;pixar_films -->
<g id="edge1" class="edge">
<title>pixar_people:film&#45;&gt;pixar_films:film</title>
<path fill="none" stroke="#555555" d="M89.5,-71C127.1813,-71 102.2491,-136.7031 128.1904,-149.0225"/>
<polygon fill="#555555" stroke="#555555" points="127.5055,-152.4547 138,-151 128.8889,-145.5928 127.5055,-152.4547"/>
</g>
<!-- public_response -->
<g id="node6" class="node">
<title>public_response</title>
<polygon fill="#ed7d31" stroke="transparent" points="3.5,-21 3.5,-41 97.5,-41 97.5,-21 3.5,-21"/>
<text text-anchor="start" x="5.0126" y="-26.4" font-family="Times,serif" font-size="14.00" fill="#ffffff">public_response</text>
<polygon fill="#fbe5d5" stroke="transparent" points="3.5,-1 3.5,-21 97.5,-21 97.5,-1 3.5,-1"/>
<text text-anchor="start" x="5.5" y="-7.4" font-family="Times,serif" text-decoration="underline" font-size="14.00" fill="#444444">film</text>
<polygon fill="none" stroke="#9e5320" stroke-opacity="0.666667" points="2.5,0 2.5,-42 98.5,-42 98.5,0 2.5,0"/>
</g>
<!-- public_response&#45;&gt;pixar_films -->
<g id="edge5" class="edge">
<title>public_response:film&#45;&gt;pixar_films:film</title>
<path fill="none" stroke="#555555" d="M97.5,-11C158.3517,-11 83.4456,-134.5601 127.8579,-149.5225"/>
<polygon fill="#555555" stroke="#555555" points="127.5999,-153.0217 138,-151 128.6091,-146.0949 127.5999,-153.0217"/>
</g>
</g>
</svg>

