<?xml version="1.0" encoding="UTF-8" standalone="no"?>
<!DOCTYPE svg PUBLIC "-//W3C//DTD SVG 1.1//EN"
 "http://www.w3.org/Graphics/SVG/1.1/DTD/svg11.dtd">
<!-- Generated by graphviz version 2.40.1 (20161225.0304)
 -->
<!-- Title: %0 Pages: 1 -->
<svg width="252pt" height="230pt"
 viewBox="0.00 0.00 252.00 230.00" xmlns="http://www.w3.org/2000/svg" xmlns:xlink="http://www.w3.org/1999/xlink">
<g id="graph0" class="graph" transform="scale(1 1) rotate(0) translate(4 226)">
<title>%0</title>
<g id="a_graph0"><a xlink:title="Data Model">
<polygon fill="#ffffff" stroke="transparent" points="-4,4 -4,-226 248,-226 248,4 -4,4"/>
</a>
</g>
<!-- academy -->
<g id="node1" class="node">
<title>academy</title>
<polygon fill="#efebdd" stroke="transparent" points="32.5,-201 32.5,-221 101.5,-221 101.5,-201 32.5,-201"/>
<text text-anchor="start" x="42.1255" y="-206.4" font-family="Times,serif" font-size="14.00" fill="#000000">academy</text>
<polygon fill="#ffffff" stroke="transparent" points="32.5,-181 32.5,-201 101.5,-201 101.5,-181 32.5,-181"/>
<text text-anchor="start" x="34.5" y="-186.4" font-family="Times,serif" font-size="14.00" fill="#444444">film</text>
<polygon fill="#ffffff" stroke="transparent" points="32.5,-161 32.5,-181 101.5,-181 101.5,-161 32.5,-161"/>
<text text-anchor="start" x="34.3492" y="-166.4" font-family="Times,serif" font-size="14.00" fill="#444444">award_type</text>
<polygon fill="#ffffff" stroke="transparent" points="32.5,-141 32.5,-161 101.5,-161 101.5,-141 32.5,-141"/>
<text text-anchor="start" x="34.5" y="-146.4" font-family="Times,serif" font-size="14.00" fill="#444444">status</text>
<polygon fill="none" stroke="#555555" points="31,-140 31,-222 102,-222 102,-140 31,-140"/>
</g>
<!-- pixar_films -->
<g id="node3" class="node">
<title>pixar_films</title>
<polygon fill="#efebdd" stroke="transparent" points="170.5,-171 170.5,-191 243.5,-191 243.5,-171 170.5,-171"/>
<text text-anchor="start" x="174.7286" y="-176.4" font-family="Times,serif" font-size="14.00" fill="#000000">pixar_films</text>
<polygon fill="#ffffff" stroke="transparent" points="170.5,-151 170.5,-171 243.5,-171 243.5,-151 170.5,-151"/>
<text text-anchor="start" x="172.5" y="-156.4" font-family="Times,serif" font-size="14.00" fill="#444444">number</text>
<polygon fill="#ffffff" stroke="transparent" points="170.5,-131 170.5,-151 243.5,-151 243.5,-131 170.5,-131"/>
<text text-anchor="start" x="172.5" y="-137.4" font-family="Times,serif" text-decoration="underline" font-size="14.00" fill="#444444">film</text>
<polygon fill="#ffffff" stroke="transparent" points="170.5,-111 170.5,-131 243.5,-131 243.5,-111 170.5,-111"/>
<text text-anchor="start" x="172.5" y="-116.4" font-family="Times,serif" font-size="14.00" fill="#444444">franchise</text>
<polygon fill="#ffffff" stroke="transparent" points="170.5,-91 170.5,-111 243.5,-111 243.5,-91 170.5,-91"/>
<text text-anchor="start" x="172.5" y="-96.4" font-family="Times,serif" font-size="14.00" fill="#444444">sequel</text>
<polygon fill="#ffffff" stroke="transparent" points="170.5,-71 170.5,-91 243.5,-91 243.5,-71 170.5,-71"/>
<text text-anchor="start" x="172.413" y="-76.4" font-family="Times,serif" font-size="14.00" fill="#444444">release_date</text>
<polygon fill="#ffffff" stroke="transparent" points="170.5,-51 170.5,-71 243.5,-71 243.5,-51 170.5,-51"/>
<text text-anchor="start" x="172.5" y="-56.4" font-family="Times,serif" font-size="14.00" fill="#444444">run_time</text>
<polygon fill="#ffffff" stroke="transparent" points="170.5,-31 170.5,-51 243.5,-51 243.5,-31 170.5,-31"/>
<text text-anchor="start" x="172.5" y="-36.4" font-family="Times,serif" font-size="14.00" fill="#444444">film_rating</text>
<polygon fill="none" stroke="#555555" points="169,-30 169,-192 244,-192 244,-30 169,-30"/>
</g>
<!-- academy&#45;&gt;pixar_films -->
<g id="edge1" class="edge">
<title>academy:film&#45;&gt;pixar_films:film</title>
<path fill="none" stroke="#555555" d="M101.5,-191C135.5254,-191 133.5378,-150.6405 160.2481,-142.4425"/>
<polygon fill="#555555" stroke="#555555" points="161.0852,-145.8593 170.5,-141 160.1099,-138.9275 161.0852,-145.8593"/>
</g>
<!-- box_office -->
<g id="node2" class="node">
<title>box_office</title>
<polygon fill="#efebdd" stroke="transparent" points="1.5,-101 1.5,-121 132.5,-121 132.5,-101 1.5,-101"/>
<text text-anchor="start" x="36.6795" y="-106.4" font-family="Times,serif" font-size="14.00" fill="#000000">box_office</text>
<polygon fill="#ffffff" stroke="transparent" points="1.5,-81 1.5,-101 132.5,-101 132.5,-81 1.5,-81"/>
<text text-anchor="start" x="3.5" y="-87.4" font-family="Times,serif" text-decoration="underline" font-size="14.00" fill="#444444">film</text>
<polygon fill="#ffffff" stroke="transparent" points="1.5,-61 1.5,-81 132.5,-81 132.5,-61 1.5,-61"/>
<text text-anchor="start" x="3.5" y="-66.4" font-family="Times,serif" font-size="14.00" fill="#444444">budget</text>
<polygon fill="#ffffff" stroke="transparent" points="1.5,-41 1.5,-61 132.5,-61 132.5,-41 1.5,-41"/>
<text text-anchor="start" x="3.5" y="-46.4" font-family="Times,serif" font-size="14.00" fill="#444444">box_office_us_canada</text>
<polygon fill="#ffffff" stroke="transparent" points="1.5,-21 1.5,-41 132.5,-41 132.5,-21 1.5,-21"/>
<text text-anchor="start" x="3.5" y="-26.4" font-family="Times,serif" font-size="14.00" fill="#444444">box_office_other</text>
<polygon fill="#ffffff" stroke="transparent" points="1.5,-1 1.5,-21 132.5,-21 132.5,-1 1.5,-1"/>
<text text-anchor="start" x="3.2447" y="-6.4" font-family="Times,serif" font-size="14.00" fill="#444444">box_office_worldwide</text>
<polygon fill="none" stroke="#555555" points="0,0 0,-122 133,-122 133,0 0,0"/>
</g>
<!-- box_office&#45;&gt;pixar_films -->
<g id="edge2" class="edge">
<title>box_office:film&#45;&gt;pixar_films:film</title>
<path fill="none" stroke="#555555" d="M132.5,-91C156.2685,-91 146.8719,-127.2579 160.7946,-138.022"/>
<polygon fill="#555555" stroke="#555555" points="159.9132,-141.4126 170.5,-141 161.9666,-134.7205 159.9132,-141.4126"/>
</g>
</g>
</svg>

